<svg xmlns="http://www.w3.org/2000/svg" width="156" height="31" fill="none"><g clip-path="url(#a)"><path fill="#009688" d="M29.949 28.456a1.6 1.6 0 0 1-1.463.527c-.585-.088-.994-.468-1.082-.966-.702-3.918-2.983-7.018-6.521-9.475-3.568-2.486-7.663-3.714-12.283-3.627-1.726.03-3.422.235-5.001.82-.673.233-1.433-.03-1.726-.615-.292-.555-.058-1.199.644-1.52 1.959-.878 3.948-1.726 5.907-2.603.673-.293 1.375-.585 2.018-.907.614-.292 1.17-.234 1.755.088l12.37 6.404c1.521.79 3.042 1.58 4.563 2.34.585.293.819.673.819 1.258l.175 7.516c-.03.263-.117.497-.175.76"/><path fill="url(#b)" d="M21.818 12.985c-2.106-1.082-4.182-2.135-6.288-3.217-.234-.117-.438-.234-.614-.41-.556-.584-.322-1.374.497-1.754 1.96-.936 3.948-1.872 5.908-2.808 2.369-1.111 4.708-2.222 7.048-3.334 1.2-.555 2.252-.029 2.223 1.14-.03 2.75-.088 5.499-.147 8.277-.029 1.082-1.11 1.609-2.193 1.053-1.404-.702-2.808-1.404-4.182-2.135-.673-.35-.848-1.023-.439-1.579.38-.526 1.14-.702 1.784-.41.293.118.556.293.848.38.644.235 1.346-.058 1.404-.643.059-.585.088-1.17.03-1.754-.088-.644-.79-.936-1.463-.615a179 179 0 0 0-4.153 1.99c-1.257.643-1.433 2.134-.35 2.982.233.176.496.351.76.468 2.34 1.2 4.708 2.398 7.048 3.627.672.35.965.877.76 1.403-.292.79-1.199 1.082-2.047.673-.76-.38-1.491-.76-2.252-1.14a502 502 0 0 0-4.182-2.194"/><path fill="#009688" d="M54.194 20.356 48.959 6.99a.57.57 0 0 0-.556-.38H46.27a.6.6 0 0 0-.556.38L40.42 20.355c-.146.38.117.79.556.79h2.077a.6.6 0 0 0 .555-.38l.82-2.253h5.702l.819 2.252c.088.234.292.38.556.38h2.134c.41 0 .702-.41.556-.79m-8.803-4.475 1.901-5.176 1.872 5.176zm11.142 5.266a.587.587 0 0 1-.585-.585V6.785c0-.322.263-.585.585-.585h1.989c.321 0 .585.263.585.585V20.56a.587.587 0 0 1-.585.585zm14.212-10.002h-1.93a.587.587 0 0 0-.585.585v.263a3.5 3.5 0 0 0-.936-.643c-.526-.263-1.14-.38-1.813-.38-.907 0-1.755.234-2.457.672a4.9 4.9 0 0 0-1.696 1.843c-.41.79-.614 1.667-.614 2.661 0 .995.205 1.901.614 2.69.439.79.994 1.404 1.696 1.843.731.468 1.55.673 2.457.673.672 0 1.287-.146 1.842-.38.351-.176.673-.38.936-.644v.234c0 .322.263.585.585.585h1.93a.587.587 0 0 0 .585-.585v-8.832c-.03-.322-.292-.585-.614-.585m-2.983 6.727c-.41.438-.965.643-1.638.643a2.1 2.1 0 0 1-1.14-.322 2.3 2.3 0 0 1-.82-.848c-.204-.35-.292-.76-.292-1.228s.088-.877.293-1.228.468-.644.819-.82c.35-.204.73-.292 1.17-.292.438 0 .818.088 1.14.293.351.205.614.468.79.819.204.35.292.76.292 1.228 0 .731-.205 1.287-.614 1.755m15.238-5.909-3.948 9.242-1.608 3.831a.58.58 0 0 1-.527.351h-1.93a.573.573 0 0 1-.526-.819l1.871-4.094-3.48-8.51a.6.6 0 0 1 .556-.82h2.105c.264 0 .468.176.556.41l1.872 5.674 1.9-5.674c.088-.234.293-.41.556-.41h2.106c.38 0 .673.44.497.82"/><path fill="#37474F" d="M96.45 20.56v.204a.587.587 0 0 1-.585.585h-8.159a.587.587 0 0 1-.585-.585V7.78c0-.321.263-.585.585-.585h8.043c.321 0 .584.264.584.585v.205a.587.587 0 0 1-.584.585h-7.136v4.855h6.58c.322 0 .585.263.585.585v.175a.587.587 0 0 1-.585.585h-6.58v5.205h7.252c.322 0 .585.264.585.585m9.651.79h-.292a.61.61 0 0 1-.468-.234l-2.749-3.743c-.03.029-.03.058-.059.087l-2.749 3.656a.61.61 0 0 1-.468.234h-.234a.58.58 0 0 1-.468-.936l2.896-3.772c.058-.088.175-.147.263-.205l-2.983-3.831a.58.58 0 0 1 .468-.936h.321a.61.61 0 0 1 .468.234l2.632 3.45c0-.028.03-.058.059-.087l2.515-3.363a.61.61 0 0 1 .468-.234h.234c.497 0 .76.556.468.936l-2.72 3.48c-.059.088-.176.146-.263.205l3.1 4.153c.292.35.029.906-.439.906m12.17-7.4c-.409-.76-.965-1.375-1.696-1.813a4.5 4.5 0 0 0-2.398-.673c-.702 0-1.375.146-1.989.438a4 4 0 0 0-1.462 1.229c-.059.058-.088.117-.117.175v-1.052a.587.587 0 0 0-.585-.585h-.263a.587.587 0 0 0-.585.585v12.575c0 .322.263.585.585.585h.263a.587.587 0 0 0 .585-.585v-5.118c.029.059.058.117.117.146.38.527.877.936 1.462 1.229.585.292 1.258.438 1.989.438.906 0 1.696-.234 2.398-.643.731-.439 1.287-1.053 1.696-1.813q.614-1.14.614-2.545c.029-.935-.175-1.813-.614-2.573m-1.316 4.474a3.07 3.07 0 0 1-1.228 1.287c-.527.293-1.112.439-1.813.439-.673 0-1.258-.146-1.784-.439a3.6 3.6 0 0 1-1.2-1.287q-.438-.833-.438-1.93c0-.731.146-1.374.438-1.9a3.4 3.4 0 0 1 1.2-1.288c.526-.321 1.111-.468 1.784-.468.672 0 1.257.147 1.783.468.527.322.936.76 1.229 1.287.292.556.438 1.2.438 1.901.059.731-.087 1.375-.409 1.93m10.526-5.498-.146.146c-.234.264-.643.234-.936.059a1.4 1.4 0 0 0-.292-.146 2.3 2.3 0 0 0-.936-.176c-.731 0-1.346.234-1.813.731-.381.41-.615.965-.673 1.697 0 .029 0 .058-.029.087v5.44a.587.587 0 0 1-.585.585h-.263a.587.587 0 0 1-.585-.585v-8.51c0-.322.263-.585.585-.585h.263c.321 0 .585.263.585.584v.673c.087-.146.175-.263.292-.41.614-.701 1.433-1.081 2.457-1.081.468 0 .936.087 1.316.263q.394.132.702.438c.263.234.263.585.058.79m10.444 3.246c0 .117 0 .234-.03.38v.03a.543.543 0 0 1-.555.468h-7.312c-.058 0-.087 0-.146-.03-.029-.175-.029-.38-.029-.585s0-.409.029-.614c.059 0 .088-.029.146-.029h6.493c-.029-.526-.146-.994-.351-1.374a2.87 2.87 0 0 0-1.082-1.2c-.468-.292-1.024-.438-1.696-.438q-1.053 0-1.843.438a3.07 3.07 0 0 0-1.228 1.287c-.205.38-.351.82-.41 1.287a.56.56 0 0 0-.438.556v.058a.54.54 0 0 0 .438.556c.059.497.205.965.41 1.374a3.7 3.7 0 0 0 1.287 1.316c.555.322 1.199.468 1.93.468a4.3 4.3 0 0 0 1.638-.321c.292-.117.555-.293.789-.498.263-.233.673-.263.936 0l.088.088c.204.205.234.556 0 .76q-.57.527-1.316.878a5.3 5.3 0 0 1-2.135.439 5.65 5.65 0 0 1-2.632-.644c-.79-.41-1.375-1.053-1.843-1.813-.438-.76-.672-1.638-.672-2.603 0-.936.234-1.813.672-2.544.439-.76 1.024-1.375 1.784-1.813a5 5 0 0 1 2.545-.673c.877 0 1.667.205 2.339.585a4.4 4.4 0 0 1 1.609 1.667c.38.819.585 1.608.585 2.544"/><path fill="#37474F" d="M129.851 16.464c0 .205 0 .38.029.585a.56.56 0 0 1-.438-.556v-.058c0-.293.204-.498.438-.556-.029.146-.029.35-.029.585m13.248 5.089a5 5 0 0 1-1.492-.204 5.4 5.4 0 0 1-1.316-.614 6 6 0 0 1-.672-.556.52.52 0 0 1 .029-.76l.117-.117c.234-.264.643-.234.907 0 .263.233.555.438.848.585.497.233 1.053.321 1.637.321.644 0 1.141-.117 1.492-.38.38-.234.556-.585.556-1.024 0-.41-.117-.73-.381-.965-.263-.234-.584-.41-1.023-.555-.41-.147-.819-.264-1.287-.38-.439-.147-.877-.293-1.287-.498a2.6 2.6 0 0 1-.994-.848c-.234-.35-.38-.819-.38-1.404 0-.555.117-1.023.38-1.433s.673-.73 1.141-.935c.497-.234 1.111-.351 1.783-.351.732 0 1.375.117 1.989.38.439.205.79.438 1.111.76.205.205.176.527-.029.731l-.117.117c-.263.264-.643.205-.936 0-.175-.146-.409-.263-.614-.38a3.3 3.3 0 0 0-1.433-.322c-.614 0-1.082.117-1.433.38a1.1 1.1 0 0 0-.468.936c0 .38.117.673.38.878.264.205.585.38.995.526.409.117.848.263 1.287.38s.877.293 1.286.527c.41.204.732.497.995.877.263.351.38.848.38 1.462 0 .878-.322 1.55-.936 2.077-.614.556-1.462.79-2.515.79m8.715 0a5 5 0 0 1-1.492-.205 5.4 5.4 0 0 1-1.316-.614c-.234-.176-.468-.351-.672-.556a.52.52 0 0 1 .029-.76l.117-.117c.234-.263.643-.234.906 0 .264.234.556.439.848.585.498.234 1.053.321 1.638.321.644 0 1.141-.117 1.492-.38.38-.234.555-.585.555-1.023 0-.41-.117-.732-.38-.965-.263-.234-.585-.41-1.023-.556a14 14 0 0 0-1.287-.38c-.439-.146-.878-.293-1.287-.497a2.6 2.6 0 0 1-.994-.849c-.234-.35-.381-.819-.381-1.403 0-.556.117-1.024.381-1.433.263-.41.672-.731 1.14-.936.497-.234 1.112-.351 1.784-.351.731 0 1.375.117 1.989.38.439.205.79.439 1.111.76.205.205.176.527-.029.732l-.117.117c-.263.263-.643.204-.936 0-.175-.147-.409-.264-.614-.38a3.3 3.3 0 0 0-1.433-.322c-.614 0-1.082.117-1.433.38a1.1 1.1 0 0 0-.468.936c0 .38.117.672.38.877s.585.38.995.526c.409.117.848.264 1.286.38.439.118.878.293 1.287.527.41.205.731.497.994.877.264.351.381.848.381 1.463 0 .877-.322 1.55-.936 2.076-.614.556-1.433.79-2.515.79"/></g><defs><linearGradient id="b" x1="32.775" x2="20.696" y1="2.971" y2="13.593" gradientUnits="userSpaceOnUse"><stop stop-color="#26A69A"/><stop offset="1" stop-color="#81C784"/></linearGradient><clipPath id="a"><path fill="#fff" d="M0 0h155.292v31H0z"/></clipPath></defs></svg>