<svg xmlns="http://www.w3.org/2000/svg" width="226" height="48" fill="none"><g fill="#009688" clip-path="url(#a)"><path d="m79.855 33.248-7.552-19.535a.83.83 0 0 0-.802-.556h-3.08a.87.87 0 0 0-.8.556l-7.637 19.535a.84.84 0 0 0 .801 1.154h2.996a.865.865 0 0 0 .801-.556l1.182-3.291h8.227l1.18 3.291a.825.825 0 0 0 .802.556h3.08a.858.858 0 0 0 .802-1.154m-12.699-6.54 2.742-7.566 2.7 7.566zm16.074 7.694a.85.85 0 0 1-.844-.855V13.414c0-.47.38-.855.844-.855h2.87c.463 0 .843.384.843.855v20.133c0 .47-.38.855-.844.855zm20.504-14.619h-2.784a.85.85 0 0 0-.844.855v.384c-.38-.384-.844-.683-1.35-.94-.76-.385-1.646-.556-2.616-.556-1.308 0-2.531.342-3.544.983-1.012.642-1.856 1.582-2.447 2.694-.59 1.154-.886 2.436-.886 3.89 0 1.453.295 2.778.886 3.932.633 1.154 1.435 2.052 2.447 2.693 1.055.684 2.236.983 3.544.983a6.7 6.7 0 0 0 2.658-.556c.506-.256.97-.555 1.35-.94v.342c0 .47.38.855.844.855h2.784a.85.85 0 0 0 .844-.855v-12.91c-.042-.47-.422-.854-.886-.854m-4.303 9.831c-.59.642-1.392.94-2.363.94a3 3 0 0 1-1.645-.47c-.507-.299-.886-.726-1.181-1.239s-.422-1.111-.422-1.795.126-1.283.422-1.796c.295-.513.674-.94 1.18-1.197.507-.299 1.056-.427 1.688-.427.633 0 1.182.128 1.646.427.506.3.886.684 1.139 1.197.295.513.422 1.112.422 1.796 0 1.068-.296 1.88-.886 2.564m21.98-8.634-5.695 13.507-2.321 5.6a.83.83 0 0 1-.759.512h-2.785a.836.836 0 0 1-.759-1.196l2.7-5.985-5.021-12.439c-.21-.556.169-1.197.802-1.197h3.038c.379 0 .675.257.801.599l2.7 8.292 2.743-8.292c.126-.342.422-.599.801-.599h3.038c.548 0 .97.641.717 1.197m19.407 12.568v.299c0 .47-.38.855-.844.855h-11.771a.85.85 0 0 1-.843-.855v-18.98a.85.85 0 0 1 .843-.854h11.602c.464 0 .844.384.844.855v.299c0 .47-.38.855-.844.855h-10.294v7.096h9.493c.464 0 .844.384.844.854v.257c0 .47-.38.855-.844.855h-9.493v7.609h10.463c.464 0 .844.384.844.855M154.74 34.7h-.422a.88.88 0 0 1-.675-.341l-3.965-5.472c-.043.043-.043.086-.085.128l-3.966 5.344a.88.88 0 0 1-.675.342h-.337c-.717 0-1.097-.812-.675-1.368l4.177-5.514c.084-.129.253-.214.379-.3l-4.303-5.6c-.422-.555-.042-1.367.675-1.367h.464c.253 0 .506.128.675.342l3.797 5.044c0-.043.042-.086.084-.128l3.629-4.916a.88.88 0 0 1 .675-.342h.337c.717 0 1.097.812.675 1.368l-3.923 5.086c-.085.129-.253.214-.38.3l4.472 6.07c.422.513.042 1.325-.633 1.325m17.551-10.815c-.59-1.111-1.392-2.009-2.447-2.65a6.4 6.4 0 0 0-3.459-.983 6.56 6.56 0 0 0-2.869.641 5.75 5.75 0 0 0-2.11 1.795.9.9 0 0 0-.168.257v-1.539c0-.47-.38-.855-.844-.855h-.38a.85.85 0 0 0-.844.855v18.38c0 .471.38.856.844.856h.38a.85.85 0 0 0 .844-.855v-7.48c.042.085.084.17.168.213a5.75 5.75 0 0 0 2.11 1.795c.844.428 1.814.642 2.869.642a6.66 6.66 0 0 0 3.459-.94c1.055-.642 1.857-1.54 2.447-2.651q.886-1.667.886-3.719c.042-1.368-.253-2.65-.886-3.762m-1.898 6.54c-.422.813-1.013 1.454-1.772 1.881s-1.603.642-2.616.642c-.97 0-1.814-.214-2.573-.642a5.26 5.26 0 0 1-1.73-1.88q-.633-1.219-.633-2.822c0-1.068.211-2.009.633-2.778.422-.812 1.012-1.41 1.73-1.881.759-.47 1.603-.684 2.573-.684s1.814.214 2.574.684a5 5 0 0 1 1.772 1.88c.421.813.632 1.753.632 2.78.085 1.068-.126 2.008-.59 2.82m15.187-8.036-.21.214c-.338.384-.929.342-1.351.085a2 2 0 0 0-.421-.213c-.38-.171-.844-.257-1.35-.257-1.055 0-1.941.342-2.616 1.069-.549.598-.886 1.41-.971 2.479 0 .043 0 .085-.042.128v7.95a.85.85 0 0 1-.844.856h-.379a.85.85 0 0 1-.844-.855v-12.44c0-.47.38-.854.844-.854h.379c.465 0 .844.385.844.855v.983a5 5 0 0 1 .422-.598c.886-1.026 2.067-1.582 3.544-1.582.675 0 1.35.128 1.899.385a2.56 2.56 0 0 1 1.012.64c.38.343.38.856.084 1.155m15.062 4.745c0 .171 0 .342-.042.556v.043c-.043.384-.38.684-.802.684h-10.547c-.085 0-.127 0-.211-.043-.042-.256-.042-.556-.042-.855 0-.3.042-.641.084-.94h9.535c-.042-.77-.211-1.454-.507-2.01a4.2 4.2 0 0 0-1.561-1.752c-.675-.428-1.476-.641-2.446-.641q-1.52 0-2.658.641c-.76.427-1.35 1.069-1.772 1.88a5.4 5.4 0 0 0-.591 1.882c.028.12.028.846.028.846v.145l-.028.718c.084.727.295 1.411.591 2.01a5.4 5.4 0 0 0 1.856 1.923c.802.47 1.73.684 2.784.684.844 0 1.646-.171 2.363-.47a4 4 0 0 0 1.139-.727c.38-.342.97-.385 1.35 0l.127.128c.295.3.337.813 0 1.112a7.5 7.5 0 0 1-1.899 1.282 7.5 7.5 0 0 1-3.08.641 8.1 8.1 0 0 1-3.797-.94c-1.139-.599-1.982-1.539-2.657-2.65-.633-1.112-.971-2.394-.971-3.805 0-1.368.338-2.65.971-3.719.632-1.111 1.476-2.009 2.573-2.65a7.15 7.15 0 0 1 3.671-.983c1.265 0 2.404.3 3.375.855.97.598 1.772 1.41 2.32 2.436.548 1.197.844 2.351.844 3.72M208.109 35c-.759 0-1.476-.086-2.151-.3a7.8 7.8 0 0 1-1.899-.897c-.337-.256-.675-.513-.97-.812a.77.77 0 0 1 .042-1.111l.169-.171c.337-.385.928-.342 1.308 0a5.7 5.7 0 0 0 1.223.854c.717.343 1.519.47 2.363.47.928 0 1.645-.17 2.151-.555.549-.342.802-.855.802-1.496 0-.598-.169-1.069-.549-1.41-.379-.343-.843-.6-1.476-.813a19 19 0 0 0-1.856-.556c-.633-.213-1.266-.427-1.857-.726-.59-.3-1.097-.727-1.434-1.24-.338-.513-.549-1.197-.549-2.052 0-.812.169-1.496.549-2.094.379-.599.97-1.069 1.645-1.368.717-.342 1.603-.513 2.574-.513 1.054 0 1.983.17 2.869.556.632.299 1.139.64 1.603 1.111.295.3.253.77-.042 1.069l-.169.17c-.38.385-.928.3-1.35 0-.253-.213-.591-.384-.886-.555a4.75 4.75 0 0 0-2.068-.47c-.885 0-1.561.17-2.067.555-.464.342-.675.813-.675 1.368s.169.983.549 1.283c.379.299.843.555 1.434.77.591.17 1.224.384 1.856.555a7.8 7.8 0 0 1 1.857.77c.59.299 1.054.726 1.434 1.282.38.513.549 1.24.549 2.137 0 1.282-.464 2.266-1.35 3.035-.886.812-2.11 1.154-3.629 1.154m12.573 0c-.76 0-1.477-.086-2.152-.3a7.7 7.7 0 0 1-1.898-.897c-.338-.256-.675-.513-.971-.812a.77.77 0 0 1 .042-1.111l.169-.171c.338-.385.928-.342 1.308 0s.802.64 1.224.854c.717.343 1.518.47 2.362.47.928 0 1.646-.17 2.152-.555.548-.342.801-.855.801-1.496 0-.598-.168-1.069-.548-1.41-.38-.343-.844-.6-1.477-.813a19 19 0 0 0-1.856-.556c-.633-.213-1.266-.427-1.856-.726-.591-.3-1.097-.727-1.435-1.24-.337-.513-.548-1.197-.548-2.052 0-.812.169-1.496.548-2.094.38-.599.971-1.069 1.646-1.368.717-.342 1.603-.513 2.573-.513 1.055 0 1.983.17 2.869.556.633.299 1.139.64 1.603 1.111.296.3.253.77-.042 1.069l-.169.17c-.379.385-.928.3-1.35 0-.253-.213-.59-.384-.886-.555a4.74 4.74 0 0 0-2.067-.47c-.886 0-1.561.17-2.067.555-.464.342-.675.813-.675 1.368s.168.983.548 1.283.844.555 1.435.77c.59.17 1.223.384 1.856.555a7.8 7.8 0 0 1 1.856.77 3.8 3.8 0 0 1 1.435 1.282c.379.513.548 1.24.548 2.137 0 1.282-.464 2.266-1.35 3.035-.886.812-2.067 1.154-3.628 1.154"/></g><path fill="#009688" fill-rule="evenodd" d="M5.183 0C2.32 0 0 2.355 0 5.26v37.48C0 45.645 2.32 48 5.183 48H42.11c2.862 0 5.182-2.355 5.182-5.26V5.26c0-2.905-2.32-5.26-5.182-5.26zm9.133 10.72 17.707-7.432H6.479c-1.79 0-3.24 1.472-3.24 3.287v8.597l1.637-.707a3.42 3.42 0 0 1 3.27.298l30.017 20.214a3.53 3.53 0 0 1 1.542 2.942l-.021 6.793h1.13c1.79 0 3.24-1.472 3.24-3.287V6.575c0-1.815-1.45-3.287-3.24-3.287H39.4l.05 15.702c.003 1.282-1.402 2.05-2.455 1.342l-7.337-4.941a1.86 1.86 0 0 1-.51-2.557 1.8 1.8 0 0 1 2.52-.517l1.961 1.321c.832.56 1.946-.033 1.963-1.046l.082-4.687c.016-.912-.886-1.55-1.724-1.218l-8.383 3.32c-2.623 1.04-3.004 4.648-.658 6.228l13.645 9.189a1.94 1.94 0 0 1 .532 2.667 1.88 1.88 0 0 1-2.628.54L14.046 13.539c-1.054-.71-.9-2.328.27-2.819M3.239 41.425v-17.83c5.738.265 11.755 2.195 17.22 5.875 5.956 4.01 10.279 9.441 12.653 15.242H6.479c-1.79 0-3.24-1.472-3.24-3.287" clip-rule="evenodd"/><defs><clipPath id="a"><path fill="#fff" d="M59.578 12.383H225.66v28.635H59.578z"/></clipPath></defs></svg>