<svg width="226" height="48" viewBox="0 0 226 48" fill="none" xmlns="http://www.w3.org/2000/svg">
<g clip-path="url(#clip0_312_4582)">
<path d="M79.8549 33.2478L72.3031 13.7129C72.1765 13.371 71.8812 13.1572 71.5015 13.1572H68.4217C68.0842 13.1572 67.7467 13.371 67.6201 13.7129L59.9839 33.2478C59.7729 33.8035 60.1526 34.4019 60.7855 34.4019H63.7809C64.1184 34.4019 64.4559 34.1882 64.5825 33.8462L65.7638 30.5548H73.9906L75.1719 33.8462C75.2985 34.1882 75.5938 34.4019 75.9735 34.4019H79.0533C79.644 34.4019 80.0659 33.8035 79.8549 33.2478ZM67.156 26.7077L69.8983 19.1416L72.5984 26.7077H67.156Z" fill="#009688"/>
<path d="M83.2303 34.4017C82.7662 34.4017 82.3865 34.017 82.3865 33.5468V13.4135C82.3865 12.9433 82.7662 12.5586 83.2303 12.5586H86.0991C86.5632 12.5586 86.9429 12.9433 86.9429 13.4135V33.5468C86.9429 34.017 86.5632 34.4017 86.0991 34.4017H83.2303Z" fill="#009688"/>
<path d="M103.734 19.7828H100.95C100.485 19.7828 100.106 20.1676 100.106 20.6378V21.0225C99.7261 20.6378 99.262 20.3385 98.7557 20.0821C97.9963 19.6974 97.1103 19.5264 96.14 19.5264C94.8321 19.5264 93.6087 19.8683 92.5961 20.5095C91.5836 21.1507 90.7398 22.0911 90.1491 23.2025C89.5585 24.3566 89.2632 25.639 89.2632 27.0924C89.2632 28.5457 89.5585 29.8709 90.1491 31.025C90.782 32.1791 91.5836 33.0768 92.5961 33.718C93.6508 34.4019 94.8321 34.7011 96.14 34.7011C97.1103 34.7011 97.9963 34.4874 98.7979 34.1454C99.3042 33.889 99.7682 33.5898 100.148 33.205V33.547C100.148 34.0172 100.528 34.4019 100.992 34.4019H103.776C104.24 34.4019 104.62 34.0172 104.62 33.547V20.6378C104.578 20.1676 104.198 19.7828 103.734 19.7828ZM99.4307 29.6144C98.8401 30.2556 98.0385 30.5548 97.0682 30.5548C96.4353 30.5548 95.8869 30.3838 95.4228 30.0846C94.9165 29.7854 94.5368 29.3579 94.2415 28.845C93.9462 28.332 93.8196 27.7336 93.8196 27.0496C93.8196 26.3657 93.9462 25.7673 94.2415 25.2543C94.5368 24.7414 94.9165 24.3139 95.4228 24.0574C95.929 23.7582 96.4775 23.63 97.1103 23.63C97.7432 23.63 98.2916 23.7582 98.7557 24.0574C99.262 24.3566 99.6417 24.7414 99.8948 25.2543C100.19 25.7673 100.317 26.3657 100.317 27.0496C100.317 28.1183 100.021 28.9305 99.4307 29.6144Z" fill="#009688"/>
<path d="M121.411 20.9791L115.716 34.4868L113.395 40.0865C113.269 40.3857 112.973 40.5995 112.636 40.5995H109.851C109.218 40.5995 108.839 39.9583 109.092 39.4026L111.792 33.4182L106.771 20.9791C106.561 20.4234 106.94 19.7822 107.573 19.7822H110.611C110.99 19.7822 111.286 20.0387 111.412 20.3807L114.112 28.6734L116.855 20.3807C116.981 20.0387 117.277 19.7822 117.656 19.7822H120.694C121.242 19.7822 121.664 20.4234 121.411 20.9791Z" fill="#009688"/>
<path d="M140.818 33.5466V33.8458C140.818 34.316 140.438 34.7007 139.974 34.7007H128.203C127.739 34.7007 127.36 34.316 127.36 33.8458V14.8666C127.36 14.3964 127.739 14.0117 128.203 14.0117H139.805C140.269 14.0117 140.649 14.3964 140.649 14.8666V15.1659C140.649 15.6361 140.269 16.0208 139.805 16.0208H129.511V23.1166C129.553 23.1166 129.596 23.1166 129.596 23.1166H139.004C139.468 23.1166 139.848 23.5013 139.848 23.9715V24.228C139.848 24.6982 139.468 25.0829 139.004 25.0829H129.596C129.553 25.0829 129.511 25.0829 129.511 25.0829V32.6917H139.974C140.438 32.6917 140.818 33.0764 140.818 33.5466Z" fill="#009688"/>
<path d="M154.74 34.7006H154.318C154.065 34.7006 153.812 34.5724 153.643 34.3587L149.678 28.8872C149.635 28.9299 149.635 28.9727 149.593 29.0154L145.627 34.3587C145.459 34.5724 145.205 34.7006 144.952 34.7006H144.615C143.898 34.7006 143.518 33.8885 143.94 33.3328L148.117 27.8186C148.201 27.6903 148.37 27.6048 148.496 27.5193L144.193 21.9196C143.771 21.3639 144.151 20.5518 144.868 20.5518H145.332C145.585 20.5518 145.838 20.68 146.007 20.8937L149.804 25.9377C149.804 25.895 149.846 25.8522 149.888 25.8095L153.517 20.8937C153.685 20.68 153.939 20.5518 154.192 20.5518H154.529C155.246 20.5518 155.626 21.3639 155.204 21.9196L151.281 27.0064C151.196 27.1346 151.028 27.2201 150.901 27.3056L155.373 33.3755C155.795 33.8885 155.415 34.7006 154.74 34.7006Z" fill="#009688"/>
<path d="M172.291 23.8863C171.701 22.7749 170.899 21.8773 169.844 21.2361C168.832 20.5949 167.65 20.2529 166.385 20.2529C165.372 20.2529 164.402 20.4667 163.516 20.8941C162.672 21.3216 161.955 21.92 161.406 22.6894C161.322 22.7749 161.28 22.8604 161.238 22.9459V21.4071C161.238 20.9369 160.858 20.5522 160.394 20.5522H160.014C159.55 20.5522 159.17 20.9369 159.17 21.4071V39.7878C159.17 40.258 159.55 40.6427 160.014 40.6427H160.394C160.858 40.6427 161.238 40.258 161.238 39.7878V32.3073C161.28 32.3928 161.322 32.4782 161.406 32.521C161.955 33.2904 162.672 33.8889 163.516 34.3163C164.36 34.7438 165.33 34.9575 166.385 34.9575C167.693 34.9575 168.832 34.6155 169.844 34.0171C170.899 33.3759 171.701 32.4782 172.291 31.3669C172.882 30.2555 173.177 29.0158 173.177 27.648C173.219 26.2801 172.924 24.9977 172.291 23.8863ZM170.393 30.4264C169.971 31.2386 169.38 31.8798 168.621 32.3073C167.861 32.7347 167.018 32.9485 166.005 32.9485C165.035 32.9485 164.191 32.7347 163.432 32.3073C162.714 31.8371 162.124 31.1959 161.702 30.4264C161.28 29.6143 161.069 28.6739 161.069 27.6052C161.069 26.5366 161.28 25.5962 161.702 24.8267C162.124 24.0146 162.714 23.4161 163.432 22.9459C164.191 22.4757 165.035 22.262 166.005 22.262C166.975 22.262 167.819 22.4757 168.579 22.9459C169.338 23.4161 169.929 24.0573 170.351 24.8267C170.772 25.6389 170.983 26.5793 170.983 27.6052C171.068 28.6739 170.857 29.6143 170.393 30.4264Z" fill="#009688"/>
<path d="M185.58 22.39L185.37 22.6037C185.032 22.9884 184.441 22.9457 184.019 22.6892C183.893 22.6037 183.724 22.5182 183.598 22.4755C183.218 22.3045 182.754 22.219 182.248 22.219C181.193 22.219 180.307 22.561 179.632 23.2877C179.083 23.8861 178.746 24.6983 178.661 25.7669C178.661 25.8097 178.661 25.8524 178.619 25.8952V33.8459C178.619 34.3161 178.24 34.7008 177.775 34.7008H177.396C176.932 34.7008 176.552 34.3161 176.552 33.8459V21.4068C176.552 20.9366 176.932 20.5519 177.396 20.5519H177.775C178.24 20.5519 178.619 20.9366 178.619 21.4068V22.39C178.746 22.1763 178.872 22.0053 179.041 21.7916C179.927 20.7657 181.108 20.21 182.585 20.21C183.26 20.21 183.935 20.3382 184.484 20.5947C184.863 20.7229 185.201 20.9366 185.496 21.2359C185.876 21.5778 185.876 22.0908 185.58 22.39Z" fill="#009688"/>
<path d="M200.642 27.1353C200.642 27.3063 200.642 27.4773 200.6 27.691V27.7338C200.557 28.1185 200.22 28.4177 199.798 28.4177H189.251C189.166 28.4177 189.124 28.4177 189.04 28.375C188.998 28.1185 188.998 27.8193 188.998 27.52C188.998 27.2208 189.04 26.8788 189.082 26.5796C189.166 26.5796 189.166 26.5796 189.251 26.5796H198.617C198.575 25.8102 198.406 25.1263 198.11 24.5706C197.731 23.8011 197.224 23.2454 196.549 22.818C195.874 22.3905 195.073 22.1768 194.103 22.1768C193.09 22.1768 192.204 22.3905 191.445 22.818C190.685 23.2454 190.095 23.8866 189.673 24.6988C189.377 25.2545 189.166 25.8957 189.082 26.5796C189.11 26.7005 189.11 27.426 189.11 27.426V27.5711L189.082 28.2895C189.166 29.0161 189.377 29.7001 189.673 30.2985C190.137 31.1107 190.77 31.7519 191.529 32.2221C192.331 32.6923 193.259 32.906 194.313 32.906C195.157 32.906 195.959 32.735 196.676 32.4358C197.098 32.2648 197.478 32.0083 197.815 31.7091C198.195 31.3672 198.785 31.3244 199.165 31.7091L199.292 31.8374C199.587 32.1366 199.629 32.6495 199.292 32.9488C198.743 33.4617 198.11 33.8892 197.393 34.2311C196.423 34.6586 195.41 34.8723 194.313 34.8723C192.921 34.8723 191.656 34.5304 190.516 33.9319C189.377 33.3335 188.534 32.3931 187.859 31.2817C187.226 30.1703 186.888 28.8879 186.888 27.4773C186.888 26.1094 187.226 24.827 187.859 23.7584C188.491 22.647 189.335 21.7493 190.432 21.1082C191.529 20.467 192.752 20.125 194.103 20.125C195.368 20.125 196.507 20.4242 197.478 20.9799C198.448 21.5784 199.25 22.3905 199.798 23.4164C200.346 24.6133 200.642 25.7675 200.642 27.1353Z" fill="#009688"/>
<path d="M208.109 35C207.35 35 206.633 34.9145 205.958 34.7008C205.283 34.4871 204.65 34.1879 204.059 33.8031C203.722 33.5467 203.384 33.2902 203.089 32.991C202.793 32.6918 202.793 32.1788 203.131 31.8796L203.3 31.7086C203.637 31.3239 204.228 31.3666 204.608 31.7086C204.987 32.0506 205.409 32.3498 205.831 32.5635C206.548 32.9055 207.35 33.0337 208.194 33.0337C209.122 33.0337 209.839 32.8627 210.345 32.478C210.894 32.1361 211.147 31.6231 211.147 30.9819C211.147 30.3835 210.978 29.9133 210.598 29.5713C210.219 29.2293 209.755 28.9729 209.122 28.7591C208.531 28.5454 207.941 28.3744 207.266 28.2034C206.633 27.9897 206 27.776 205.409 27.4768C204.819 27.1775 204.312 26.7501 203.975 26.2371C203.637 25.7242 203.426 25.0402 203.426 24.1853C203.426 23.3732 203.595 22.6892 203.975 22.0908C204.354 21.4923 204.945 21.0221 205.62 20.7229C206.337 20.3809 207.223 20.21 208.194 20.21C209.248 20.21 210.177 20.3809 211.063 20.7657C211.695 21.0649 212.202 21.4068 212.666 21.877C212.961 22.1763 212.919 22.6465 212.624 22.9457L212.455 23.1167C212.075 23.5014 211.527 23.4159 211.105 23.1167C210.852 22.9029 210.514 22.732 210.219 22.561C209.586 22.2618 208.911 22.0908 208.151 22.0908C207.266 22.0908 206.59 22.2618 206.084 22.6465C205.62 22.9884 205.409 23.4586 205.409 24.0143C205.409 24.57 205.578 24.9975 205.958 25.2967C206.337 25.5959 206.801 25.8524 207.392 26.0661C207.983 26.2371 208.616 26.4509 209.248 26.6218C209.881 26.7928 210.514 27.0493 211.105 27.3913C211.695 27.6905 212.159 28.1179 212.539 28.6736C212.919 29.1866 213.088 29.9133 213.088 30.8109C213.088 32.0933 212.624 33.0765 211.738 33.8459C210.852 34.6581 209.628 35 208.109 35Z" fill="#009688"/>
<path d="M220.682 35C219.922 35 219.205 34.9145 218.53 34.7008C217.855 34.4871 217.222 34.1879 216.632 33.8031C216.294 33.5467 215.957 33.2902 215.661 32.991C215.366 32.6918 215.366 32.1788 215.703 31.8796L215.872 31.7086C216.21 31.3239 216.8 31.3666 217.18 31.7086C217.56 32.0506 217.982 32.3498 218.404 32.5635C219.121 32.9055 219.922 33.0337 220.766 33.0337C221.694 33.0337 222.412 32.8627 222.918 32.478C223.466 32.1361 223.719 31.6231 223.719 30.9819C223.719 30.3835 223.551 29.9133 223.171 29.5713C222.791 29.2293 222.327 28.9729 221.694 28.7591C221.104 28.5454 220.513 28.3744 219.838 28.2034C219.205 27.9897 218.572 27.776 217.982 27.4768C217.391 27.1775 216.885 26.7501 216.547 26.2371C216.21 25.7242 215.999 25.0402 215.999 24.1853C215.999 23.3732 216.168 22.6892 216.547 22.0908C216.927 21.4923 217.518 21.0221 218.193 20.7229C218.91 20.3809 219.796 20.21 220.766 20.21C221.821 20.21 222.749 20.3809 223.635 20.7657C224.268 21.0649 224.774 21.4068 225.238 21.877C225.534 22.1763 225.491 22.6465 225.196 22.9457L225.027 23.1167C224.648 23.5014 224.099 23.4159 223.677 23.1167C223.424 22.9029 223.087 22.732 222.791 22.561C222.158 22.2618 221.483 22.0908 220.724 22.0908C219.838 22.0908 219.163 22.2618 218.657 22.6465C218.193 22.9884 217.982 23.4586 217.982 24.0143C217.982 24.57 218.15 24.9975 218.53 25.2967C218.91 25.5959 219.374 25.8524 219.965 26.0661C220.555 26.2371 221.188 26.4509 221.821 26.6218C222.454 26.7928 223.087 27.0493 223.677 27.3913C224.268 27.6905 224.732 28.1179 225.112 28.6736C225.491 29.1866 225.66 29.9133 225.66 30.8109C225.66 32.0933 225.196 33.0765 224.31 33.8459C223.424 34.6581 222.243 35 220.682 35Z" fill="#009688"/>
</g>
<path fill-rule="evenodd" clip-rule="evenodd" d="M5.18284 0C2.32043 0 0 2.3551 0 5.26027V42.7397C0 45.6449 2.32043 48 5.18284 48H42.1105C44.9729 48 47.2934 45.6449 47.2934 42.7397V5.26027C47.2934 2.3551 44.9729 0 42.1105 0H5.18284ZM14.316 10.7204L32.0227 3.28767H6.47855C4.68954 3.28767 3.23927 4.75961 3.23927 6.57534V15.172L4.87619 14.4649C5.95264 13.9999 7.17999 14.1117 8.14689 14.7628L38.1634 34.9765C39.1303 35.6276 39.7088 36.7319 39.7051 37.9193L39.6836 44.7123H40.8148C42.6038 44.7123 44.0541 43.2404 44.0541 41.4247V6.57534C44.0541 4.75961 42.6038 3.28767 40.8148 3.28767H39.3996L39.4492 18.9904C39.4532 20.2721 38.0476 21.0405 36.9953 20.3319L29.6577 15.3907C28.8215 14.8275 28.5933 13.6829 29.1482 12.8341C29.7031 11.9853 30.8309 11.7538 31.6671 12.317L33.6294 13.6384C34.4613 14.1986 35.5746 13.6051 35.5923 12.592L35.674 7.90543C35.69 6.99279 34.7883 6.35563 33.9505 6.68745L25.5673 10.0077C22.9439 11.0467 22.5625 14.6545 24.909 16.2347L38.5544 25.4237C39.427 26.0114 39.6651 27.2057 39.0861 28.0914C38.5071 28.9771 37.3303 29.2187 36.4576 28.631L14.0463 13.5389C12.9918 12.8287 13.1465 11.2113 14.316 10.7204ZM3.23927 41.4247V23.5942C8.97674 23.86 14.9942 25.7896 20.4599 29.4703C26.415 33.4806 30.7375 38.9112 33.112 44.7123H6.47855C4.68954 44.7123 3.23927 43.2404 3.23927 41.4247Z" fill="#009688"/>
<defs>
<clipPath id="clip0_312_4582">
<rect width="166.082" height="28.6348" fill="white" transform="translate(59.5779 12.3828)"/>
</clipPath>
</defs>
</svg>
