<svg width="156" height="31" viewBox="0 0 156 31" fill="none" xmlns="http://www.w3.org/2000/svg">
<g clip-path="url(#clip0_119_9176)">
<path d="M29.9486 28.4561C29.5976 28.8655 29.042 29.0703 28.4864 28.9825C27.9015 28.8948 27.492 28.5146 27.4043 28.0174C26.7024 24.0986 24.4213 20.9986 20.8826 18.542C17.3147 16.0561 13.2203 14.8278 8.59957 14.9155C6.87409 14.9448 5.17787 15.1495 3.59862 15.7344C2.92598 15.9684 2.16559 15.7052 1.87314 15.1203C1.58069 14.5646 1.81465 13.9212 2.51654 13.5995C4.47598 12.7222 6.46466 11.874 8.42409 10.9967C9.09674 10.7042 9.79862 10.4118 10.442 10.0901C11.0562 9.79762 11.6118 9.85611 12.1967 10.1778C16.3203 12.3127 20.4439 14.4476 24.5675 16.5825C26.0882 17.3722 27.609 18.1618 29.1298 18.9222C29.7146 19.2146 29.9486 19.5948 29.9486 20.1797C30.0071 22.6948 30.0656 25.2099 30.1241 27.6957C30.0948 27.9589 30.0071 28.1929 29.9486 28.4561Z" fill="#009688"/>
<path d="M21.818 12.985C19.7124 11.9029 17.6359 10.85 15.5303 9.76797C15.2963 9.65099 15.0916 9.53401 14.9161 9.35854C14.3605 8.77363 14.5944 7.98401 15.4133 7.60382C17.3727 6.66797 19.3614 5.73212 21.3209 4.79627C23.6897 3.68495 26.0293 2.57363 28.369 1.46231C29.5681 0.906652 30.6209 1.43307 30.5916 2.60288C30.5624 5.35193 30.5039 8.10099 30.4454 10.8793C30.4162 11.9614 29.3341 12.4878 28.252 11.9321C26.8482 11.2302 25.4444 10.5284 24.0699 9.79722C23.3973 9.44627 23.2218 8.77363 23.6312 8.21797C24.0114 7.69156 24.7718 7.51609 25.4152 7.80854C25.7076 7.92552 25.9709 8.10099 26.2633 8.18873C26.9067 8.42269 27.6086 8.13024 27.6671 7.54533C27.7256 6.96043 27.7548 6.37552 27.6963 5.79061C27.6086 5.14722 26.9067 4.85477 26.2341 5.17646C24.8303 5.81986 23.4558 6.4925 22.0812 7.16514C20.8237 7.80854 20.6482 9.30005 21.7303 10.1482C21.9642 10.3236 22.2275 10.4991 22.4907 10.6161C24.8303 11.8151 27.1992 13.0142 29.5388 14.2425C30.2114 14.5934 30.5039 15.1199 30.2992 15.6463C30.0067 16.4359 29.1001 16.7284 28.252 16.3189C27.4916 15.9387 26.7605 15.5585 26.0001 15.1784C24.6256 14.4472 23.2218 13.7161 21.818 12.985Z" fill="url(#paint0_linear_119_9176)"/>
<path d="M54.194 20.3556L48.9591 6.99054C48.8714 6.75658 48.6667 6.61035 48.4035 6.61035H46.2686C46.0346 6.61035 45.8007 6.75658 45.7129 6.99054L40.4195 20.3556C40.2733 20.7358 40.5365 21.1453 40.9752 21.1453H43.0516C43.2856 21.1453 43.5195 20.999 43.6073 20.7651L44.4261 18.5132H50.129L50.9478 20.7651C51.0356 20.999 51.2403 21.1453 51.5035 21.1453H53.6384C54.0478 21.1453 54.3403 20.7358 54.194 20.3556ZM45.3912 15.8811L47.2922 10.7047L49.1639 15.8811H45.3912Z" fill="#009688"/>
<path d="M56.5341 21.1445C56.2124 21.1445 55.9492 20.8813 55.9492 20.5596V6.7851C55.9492 6.4634 56.2124 6.2002 56.5341 6.2002H58.5228C58.8445 6.2002 59.1077 6.4634 59.1077 6.7851V20.5596C59.1077 20.8813 58.8445 21.1445 58.5228 21.1445H56.5341Z" fill="#009688"/>
<path d="M70.746 11.1432H68.8158C68.4941 11.1432 68.2309 11.4065 68.2309 11.7282V11.9914C67.9677 11.7282 67.646 11.5234 67.295 11.348C66.7686 11.0848 66.1545 10.9678 65.4818 10.9678C64.5752 10.9678 63.7271 11.2017 63.0252 11.6404C62.3233 12.0791 61.7384 12.7225 61.329 13.4829C60.9196 14.2725 60.7148 15.1498 60.7148 16.1442C60.7148 17.1385 60.9196 18.0451 61.329 18.8348C61.7677 19.6244 62.3233 20.2385 63.0252 20.6772C63.7564 21.1451 64.5752 21.3498 65.4818 21.3498C66.1545 21.3498 66.7686 21.2036 67.3243 20.9697C67.6752 20.7942 67.9969 20.5895 68.2601 20.3263V20.5602C68.2601 20.8819 68.5233 21.1451 68.845 21.1451H70.7752C71.0969 21.1451 71.3601 20.8819 71.3601 20.5602V11.7282C71.3309 11.4065 71.0677 11.1432 70.746 11.1432ZM67.763 17.8697C67.3535 18.3083 66.7979 18.5131 66.1252 18.5131C65.6865 18.5131 65.3064 18.3961 64.9847 18.1914C64.6337 17.9866 64.3705 17.6942 64.1658 17.3432C63.9611 16.9923 63.8733 16.5829 63.8733 16.1149C63.8733 15.647 63.9611 15.2376 64.1658 14.8866C64.3705 14.5357 64.6337 14.2432 64.9847 14.0678C65.3356 13.8631 65.7158 13.7753 66.1545 13.7753C66.5931 13.7753 66.9733 13.8631 67.295 14.0678C67.646 14.2725 67.9092 14.5357 68.0847 14.8866C68.2894 15.2376 68.3771 15.647 68.3771 16.1149C68.3771 16.8461 68.1724 17.4017 67.763 17.8697Z" fill="#009688"/>
<path d="M83.0012 11.9614L79.0531 21.203L77.4446 25.0341C77.3569 25.2388 77.1522 25.385 76.9182 25.385H74.988C74.5493 25.385 74.2861 24.9464 74.4616 24.5662L76.3333 20.4718L72.8531 11.9614C72.7069 11.5813 72.9701 11.1426 73.4088 11.1426H75.5144C75.7776 11.1426 75.9824 11.318 76.0701 11.552L77.9418 17.2256L79.8427 11.552C79.9305 11.318 80.1352 11.1426 80.3984 11.1426H82.5041C82.8842 11.1426 83.1767 11.5813 83.0012 11.9614Z" fill="#009688"/>
<path d="M96.4503 20.5594V20.7641C96.4503 21.0858 96.1871 21.3491 95.8654 21.3491H87.706C87.3843 21.3491 87.1211 21.0858 87.1211 20.7641V7.77924C87.1211 7.45754 87.3843 7.19434 87.706 7.19434H95.7485C96.0701 7.19434 96.3334 7.45754 96.3334 7.77924V7.98396C96.3334 8.30566 96.0701 8.56886 95.7485 8.56886H88.6126V13.4236C88.6419 13.4236 88.6711 13.4236 88.6711 13.4236H95.1928C95.5145 13.4236 95.7777 13.6868 95.7777 14.0085V14.184C95.7777 14.5057 95.5145 14.7689 95.1928 14.7689H88.6711C88.6419 14.7689 88.6126 14.7689 88.6126 14.7689V19.9745H95.8654C96.1871 19.9745 96.4503 20.2377 96.4503 20.5594Z" fill="#37474F"/>
<path d="M106.101 21.3501H105.809C105.633 21.3501 105.458 21.2624 105.341 21.1161L102.592 17.3728C102.562 17.402 102.562 17.4312 102.533 17.4605L99.7841 21.1161C99.6671 21.2624 99.4916 21.3501 99.3162 21.3501H99.0822C98.585 21.3501 98.3218 20.7945 98.6143 20.4143L101.51 16.6416C101.568 16.5539 101.685 16.4954 101.773 16.4369L98.7898 12.6058C98.4973 12.2256 98.7605 11.6699 99.2577 11.6699H99.5794C99.7549 11.6699 99.9303 11.7577 100.047 11.9039L102.679 15.3548C102.679 15.3256 102.709 15.2963 102.738 15.2671L105.253 11.9039C105.37 11.7577 105.545 11.6699 105.721 11.6699H105.955C106.452 11.6699 106.715 12.2256 106.423 12.6058L103.703 16.086C103.644 16.1737 103.527 16.2322 103.44 16.2907L106.54 20.4435C106.832 20.7945 106.569 21.3501 106.101 21.3501Z" fill="#37474F"/>
<path d="M118.271 13.9497C117.862 13.1893 117.306 12.5752 116.575 12.1365C115.873 11.6978 115.054 11.4639 114.177 11.4639C113.475 11.4639 112.802 11.6101 112.188 11.9025C111.603 12.195 111.106 12.6044 110.726 13.1308C110.667 13.1893 110.638 13.2478 110.609 13.3063V12.2535C110.609 11.9318 110.346 11.6686 110.024 11.6686H109.761C109.439 11.6686 109.176 11.9318 109.176 12.2535V24.829C109.176 25.1507 109.439 25.4139 109.761 25.4139H110.024C110.346 25.4139 110.609 25.1507 110.609 24.829V19.711C110.638 19.7695 110.667 19.828 110.726 19.8573C111.106 20.3837 111.603 20.7931 112.188 21.0856C112.773 21.378 113.446 21.5242 114.177 21.5242C115.083 21.5242 115.873 21.2903 116.575 20.8808C117.306 20.4422 117.862 19.828 118.271 19.0676C118.68 18.3073 118.885 17.4592 118.885 16.5233C118.914 15.5875 118.71 14.7101 118.271 13.9497ZM116.955 18.4242C116.663 18.9799 116.253 19.4186 115.727 19.711C115.2 20.0035 114.615 20.1497 113.914 20.1497C113.241 20.1497 112.656 20.0035 112.13 19.711C111.632 19.3893 111.223 18.9507 110.93 18.4242C110.638 17.8686 110.492 17.2252 110.492 16.4941C110.492 15.7629 110.638 15.1195 110.93 14.5931C111.223 14.0375 111.632 13.628 112.13 13.3063C112.656 12.9846 113.241 12.8384 113.914 12.8384C114.586 12.8384 115.171 12.9846 115.697 13.3063C116.224 13.628 116.633 14.0667 116.926 14.5931C117.218 15.1488 117.364 15.7922 117.364 16.4941C117.423 17.2252 117.277 17.8686 116.955 18.4242Z" fill="#37474F"/>
<path d="M127.481 12.9261L127.335 13.0723C127.101 13.3355 126.692 13.3063 126.399 13.1308C126.311 13.0723 126.194 13.0138 126.107 12.9846C125.843 12.8676 125.522 12.8091 125.171 12.8091C124.44 12.8091 123.825 13.0431 123.358 13.5402C122.977 13.9497 122.743 14.5053 122.685 15.2365C122.685 15.2657 122.685 15.2949 122.656 15.3242V20.7638C122.656 21.0855 122.392 21.3487 122.071 21.3487H121.808C121.486 21.3487 121.223 21.0855 121.223 20.7638V12.2534C121.223 11.9317 121.486 11.6685 121.808 11.6685H122.071C122.392 11.6685 122.656 11.9317 122.656 12.2534V12.9261C122.743 12.7799 122.831 12.6629 122.948 12.5166C123.562 11.8148 124.381 11.4346 125.405 11.4346C125.873 11.4346 126.341 11.5223 126.721 11.6978C126.984 11.7855 127.218 11.9317 127.423 12.1365C127.686 12.3704 127.686 12.7214 127.481 12.9261Z" fill="#37474F"/>
<path d="M137.925 16.1722C137.925 16.2892 137.925 16.4062 137.895 16.5524V16.5816C137.866 16.8448 137.632 17.0496 137.34 17.0496H130.028C129.97 17.0496 129.941 17.0496 129.882 17.0203C129.853 16.8448 129.853 16.6401 129.853 16.4354C129.853 16.2307 129.853 16.026 129.882 15.8213C129.941 15.8213 129.97 15.792 130.028 15.792H136.521C136.492 15.2656 136.375 14.7977 136.17 14.4175C135.907 13.8911 135.556 13.5109 135.088 13.2184C134.62 12.926 134.064 12.7798 133.392 12.7798C132.69 12.7798 132.076 12.926 131.549 13.2184C131.023 13.5109 130.613 13.9496 130.321 14.5052C130.116 14.8854 129.97 15.3241 129.911 15.792C129.648 15.8505 129.473 16.0845 129.473 16.3477V16.4062C129.473 16.6986 129.648 16.9033 129.911 16.9618C129.97 17.459 130.116 17.9269 130.321 18.3364C130.643 18.892 131.081 19.3307 131.608 19.6524C132.163 19.9741 132.807 20.1203 133.538 20.1203C134.123 20.1203 134.678 20.0033 135.176 19.7986C135.468 19.6816 135.731 19.5062 135.965 19.3014C136.228 19.0675 136.638 19.0382 136.901 19.3014L136.989 19.3892C137.193 19.5939 137.223 19.9448 136.989 20.1496C136.609 20.5005 136.17 20.793 135.673 21.0269C135 21.3194 134.298 21.4656 133.538 21.4656C132.573 21.4656 131.695 21.2316 130.906 20.8222C130.116 20.4128 129.531 19.7694 129.063 19.009C128.625 18.2486 128.391 17.3713 128.391 16.4062C128.391 15.4703 128.625 14.593 129.063 13.8618C129.502 13.1014 130.087 12.4873 130.847 12.0486C131.608 11.6099 132.456 11.376 133.392 11.376C134.269 11.376 135.059 11.5807 135.731 11.9609C136.404 12.3703 136.959 12.926 137.34 13.6279C137.72 14.4467 137.925 15.2364 137.925 16.1722Z" fill="#37474F"/>
<path d="M129.851 16.4638C129.851 16.6685 129.851 16.844 129.88 17.0487C129.617 16.9902 129.442 16.7563 129.442 16.4931V16.4346C129.442 16.1421 129.646 15.9374 129.88 15.8789C129.851 16.0251 129.851 16.2298 129.851 16.4638Z" fill="#37474F"/>
<path d="M143.099 21.5534C142.573 21.5534 142.075 21.4949 141.607 21.3487C141.14 21.2025 140.701 20.9978 140.291 20.7346C140.057 20.5591 139.824 20.3836 139.619 20.1789C139.414 19.9742 139.414 19.6232 139.648 19.4185L139.765 19.3016C139.999 19.0383 140.408 19.0676 140.672 19.3016C140.935 19.5355 141.227 19.7402 141.52 19.8865C142.017 20.1204 142.573 20.2082 143.157 20.2082C143.801 20.2082 144.298 20.0912 144.649 19.828C145.029 19.594 145.205 19.2431 145.205 18.8044C145.205 18.3949 145.088 18.0732 144.824 17.8393C144.561 17.6053 144.24 17.4299 143.801 17.2836C143.391 17.1374 142.982 17.0204 142.514 16.9034C142.075 16.7572 141.637 16.611 141.227 16.4063C140.818 16.2016 140.467 15.9091 140.233 15.5582C139.999 15.2072 139.853 14.7393 139.853 14.1544C139.853 13.5987 139.97 13.1308 140.233 12.7214C140.496 12.3119 140.906 11.9902 141.374 11.7855C141.871 11.5516 142.485 11.4346 143.157 11.4346C143.889 11.4346 144.532 11.5516 145.146 11.8148C145.585 12.0195 145.936 12.2534 146.257 12.5751C146.462 12.7799 146.433 13.1016 146.228 13.3063L146.111 13.4232C145.848 13.6865 145.468 13.628 145.175 13.4232C145 13.277 144.766 13.16 144.561 13.0431C144.123 12.8383 143.655 12.7214 143.128 12.7214C142.514 12.7214 142.046 12.8383 141.695 13.1016C141.374 13.3355 141.227 13.6572 141.227 14.0374C141.227 14.4176 141.344 14.71 141.607 14.9148C141.871 15.1195 142.192 15.2949 142.602 15.4412C143.011 15.5582 143.45 15.7044 143.889 15.8214C144.327 15.9383 144.766 16.1138 145.175 16.3478C145.585 16.5525 145.907 16.8449 146.17 17.2251C146.433 17.5761 146.55 18.0732 146.55 18.6874C146.55 19.5648 146.228 20.2374 145.614 20.7638C145 21.3195 144.152 21.5534 143.099 21.5534Z" fill="#37474F"/>
<path d="M151.814 21.5537C151.287 21.5537 150.79 21.4952 150.322 21.349C149.854 21.2027 149.416 20.998 149.006 20.7348C148.772 20.5593 148.538 20.3839 148.334 20.1792C148.129 19.9744 148.129 19.6235 148.363 19.4188L148.48 19.3018C148.714 19.0386 149.123 19.0678 149.386 19.3018C149.65 19.5358 149.942 19.7405 150.234 19.8867C150.732 20.1207 151.287 20.2084 151.872 20.2084C152.516 20.2084 153.013 20.0914 153.364 19.8282C153.744 19.5942 153.919 19.2433 153.919 18.8046C153.919 18.3952 153.802 18.0735 153.539 17.8395C153.276 17.6056 152.954 17.4301 152.516 17.2839C152.106 17.1376 151.697 17.0207 151.229 16.9037C150.79 16.7575 150.351 16.6112 149.942 16.4065C149.533 16.2018 149.182 15.9093 148.948 15.5584C148.714 15.2075 148.567 14.7395 148.567 14.1546C148.567 13.599 148.684 13.131 148.948 12.7216C149.211 12.3122 149.62 11.9905 150.088 11.7858C150.585 11.5518 151.2 11.4348 151.872 11.4348C152.603 11.4348 153.247 11.5518 153.861 11.815C154.3 12.0197 154.651 12.2537 154.972 12.5754C155.177 12.7801 155.148 13.1018 154.943 13.3065L154.826 13.4235C154.563 13.6867 154.183 13.6282 153.89 13.4235C153.715 13.2773 153.481 13.1603 153.276 13.0433C152.837 12.8386 152.369 12.7216 151.843 12.7216C151.229 12.7216 150.761 12.8386 150.41 13.1018C150.088 13.3358 149.942 13.6575 149.942 14.0376C149.942 14.4178 150.059 14.7103 150.322 14.915C150.585 15.1197 150.907 15.2952 151.317 15.4414C151.726 15.5584 152.165 15.7046 152.603 15.8216C153.042 15.9386 153.481 16.1141 153.89 16.348C154.3 16.5527 154.621 16.8452 154.884 17.2254C155.148 17.5763 155.265 18.0735 155.265 18.6876C155.265 19.565 154.943 20.2376 154.329 20.7641C153.715 21.3197 152.896 21.5537 151.814 21.5537Z" fill="#37474F"/>
</g>
<defs>
<linearGradient id="paint0_linear_119_9176" x1="32.7754" y1="2.9714" x2="20.6963" y2="13.5926" gradientUnits="userSpaceOnUse">
<stop stop-color="#26A69A"/>
<stop offset="1" stop-color="#81C784"/>
</linearGradient>
<clipPath id="clip0_119_9176">
<rect width="155.292" height="31" fill="white"/>
</clipPath>
</defs>
</svg>
